<svg xmlns="http://www.w3.org/2000/svg" viewBox="0 0 512 512" style="enable-background:new 0 0 512 512" xml:space="preserve"><path d="M409.8 361.5c-19.5 0-37.2 7.4-50.2 19.5l-183-106c1.9-5.6 1.9-12.1 1.9-17.7s-.9-12.1-1.9-17.7l181.2-105.9c13.9 13 32.5 20.4 52 20.4 42.7 0 77.1-34.4 77.1-77.1S452.5 0 409.8 0s-77.1 34.4-77.1 77.1c0 6.5.9 12.1 1.9 17.7L154.3 200.7c-13.9-13-32.5-20.4-52-20.4-42.7 0-77.1 34.4-77.1 77.1s34.4 77.1 77.1 77.1c20.4 0 39-8.4 52-20.4L337.4 421c-.9 5.6-1.9 11.2-1.9 16.7 0 40.9 33.5 74.3 74.3 74.3 40.9 0 74.3-33.5 74.3-74.3 0-42.8-33.4-76.2-74.3-76.2z" style="fill:#FFFFFF"/></svg>